<?xml version="1.0" encoding="utf-8"?>
<!-- Generator: Adobe Illustrator 24.0.1, SVG Export Plug-In . SVG Version: 6.00 Build 0)  -->
<svg version="1.1" id="Layer_1" xmlns="http://www.w3.org/2000/svg" xmlns:xlink="http://www.w3.org/1999/xlink" x="0px" y="0px"
	 viewBox="0 0 480.73 156.39" style="enable-background:new 0 0 480.73 156.39;" xml:space="preserve">
<style type="text/css">
	.st0{fill:#222831;}
	.st1{fill:#DDDDDD;}
</style>
<g>
	<path class="st0" d="M127.91,156.39c-7.48,0-13.37-1.62-17.67-4.84c-4.31-3.23-7.31-7.92-9.02-14.06
		c-1.71-6.14-2.57-13.65-2.57-22.51v-30.4c0-8.86,0.85-16.37,2.57-22.51c1.71-6.14,4.72-10.83,9.02-14.06
		c4.3-3.23,10.19-4.84,17.67-4.84c7.6,0,13.52,1.61,17.77,4.84c4.24,3.23,7.22,7.92,8.93,14.06c1.71,6.15,2.56,13.65,2.56,22.51
		v30.4c0,8.87-0.85,16.37-2.56,22.51c-1.71,6.15-4.69,10.83-8.93,14.06C141.43,154.78,135.51,156.39,127.91,156.39z M127.91,145.94
		c4.81,0,8.33-1.26,10.54-3.8c2.21-2.53,3.58-6.08,4.08-10.64c0.5-4.56,0.76-9.82,0.76-15.77V83.81c0-5.95-0.26-11.18-0.76-15.67
		c-0.51-4.49-1.87-8.04-4.08-10.64c-2.22-2.59-5.73-3.9-10.54-3.9c-4.82,0-8.3,1.3-10.45,3.9c-2.16,2.6-3.51,6.15-4.08,10.64
		c-0.57,4.5-0.85,9.72-0.85,15.67v31.92c0,5.96,0.29,11.21,0.85,15.77c0.57,4.56,1.93,8.11,4.08,10.64
		C119.61,144.68,123.09,145.94,127.91,145.94z"/>
	<path class="st0" d="M176.55,154.68V44.86h13.87v11.4c3.54-3.8,7.54-6.93,11.97-9.41c4.43-2.47,9.25-3.7,14.44-3.7
		c3.67,0,6.75,0.92,9.21,2.75c2.47,1.84,4.37,4.5,5.7,7.98c1.33,3.49,2,7.7,2,12.63v88.16h-13.87V69.56c0-5.7-0.89-9.72-2.66-12.06
		c-1.78-2.34-4.44-3.52-7.98-3.52c-3.04,0-6.21,0.95-9.5,2.85c-3.29,1.9-6.4,4.37-9.31,7.41v90.44H176.55z"/>
	<path class="st0" d="M261.1,154.68V54.93h-14.06V44.86h14.06v-11.4c0-3.42,0.25-6.9,0.76-10.45c0.5-3.54,1.74-6.84,3.71-9.88
		c1.96-3.04,5.04-5.48,9.21-7.32c4.18-1.83,10-2.75,17.48-2.75c3.8,0,8.08,0.32,12.83,0.95c4.75,0.64,10.1,1.52,16.05,2.66v148.01
		h-14.06V14.46c-2.54-0.25-4.88-0.44-7.03-0.57c-2.16-0.12-4.18-0.19-6.08-0.19c-6.08,0-10.45,0.85-13.11,2.56s-4.28,4.08-4.84,7.13
		c-0.57,3.04-0.86,6.46-0.86,10.26c0,0.51,0,1.93,0,4.27c0,2.35,0,4.66,0,6.94h17.67v10.07h-17.67v99.75H261.1z"/>
	<path class="st0" d="M359.89,156.39c-3.68,0-6.78-0.92-9.31-2.75c-2.54-1.83-4.47-4.5-5.8-7.98c-1.33-3.48-1.99-7.69-1.99-12.63
		V44.86h13.87v85.12c0,5.7,0.88,9.72,2.66,12.07c1.77,2.34,4.43,3.51,7.98,3.51c3.29,0,6.62-1.04,9.97-3.13
		c3.35-2.09,6.49-4.72,9.41-7.88V44.86h13.87v109.82h-13.87v-12.16c-3.55,4.06-7.6,7.38-12.16,9.98
		C369.96,155.09,365.09,156.39,359.89,156.39z"/>
	<path class="st0" d="M414.42,154.68l26.03-57.38l-24.7-52.44h13.68l18.81,40.28l18.05-40.28h14.06L454.7,98.82l26.03,55.86h-13.3
		l-20.52-43.13l-19.19,43.13H414.42z"/>
</g>
<rect class="st0" width="17.37" height="155.68"/>
<polygon class="st0" points="24.56,77.84 102.4,0 77.84,0 0,77.84 77.84,155.68 102.4,155.68 "/>
<polygon class="st1" points="0,77.84 17.37,95.21 17.37,60.48 "/>
</svg>
